<?xml version="1.0" encoding="us-ascii" standalone="no"?><svg contentStyleType="text/css" height="916px" preserveAspectRatio="none" style="width:1548px;height:916px;background:#FFFFFF;" version="1.1" viewBox="0 0 1548 916" width="1548px" xmlns="http://www.w3.org/2000/svg" xmlns:xlink="http://www.w3.org/1999/xlink" zoomAndPan="magnify"><defs/><g><rect fill="#FFFFFF" height="668.7031" style="stroke:#181818;stroke-width:1.0;" width="10" x="308.5" y="140.3125"/><rect fill="#FFFFFF" height="98.0547" style="stroke:#181818;stroke-width:1.0;" width="10" x="313.5" y="178.6641"/><rect fill="#FFFFFF" height="501.9453" style="stroke:#181818;stroke-width:1.0;" width="10" x="679.5" y="276.7188"/><rect fill="#FFFFFF" height="137.2422" style="stroke:#181818;stroke-width:1.0;" width="10" x="684.5" y="436.4766"/><rect fill="#FFFFFF" height="91.0547" style="stroke:#181818;stroke-width:1.0;" width="10" x="1028.5" y="307.0703"/><rect fill="#FFFFFF" height="30.3516" style="stroke:#181818;stroke-width:1.0;" width="10" x="1278.5" y="573.7188"/><rect fill="#FFFFFF" height="30.3516" style="stroke:#181818;stroke-width:1.0;" width="10" x="1391" y="634.4219"/><rect fill="#FFFFFF" height="30.3516" style="stroke:#181818;stroke-width:1.0;" width="10" x="1492.5" y="337.4219"/><rect fill="none" height="717.4063" style="stroke:#000000;stroke-width:1.5;" width="1531" x="10" y="99.6094"/><rect fill="none" height="48.7031" style="stroke:#000000;stroke-width:1.5;" width="342.5" x="20" y="198.6641"/><rect fill="none" height="277" style="stroke:#000000;stroke-width:1.5;" width="1443" x="20" y="456.4766"/><line style="stroke:#181818;stroke-width:0.5;stroke-dasharray:5.0,5.0;" x1="63" x2="63" y1="82.6094" y2="834.0156"/><line style="stroke:#181818;stroke-width:0.5;stroke-dasharray:5.0,5.0;" x1="313.5" x2="313.5" y1="82.6094" y2="834.0156"/><line style="stroke:#181818;stroke-width:0.5;stroke-dasharray:5.0,5.0;" x1="684" x2="684" y1="82.6094" y2="834.0156"/><line style="stroke:#181818;stroke-width:0.5;stroke-dasharray:5.0,5.0;" x1="1033" x2="1033" y1="82.6094" y2="834.0156"/><line style="stroke:#181818;stroke-width:0.5;stroke-dasharray:5.0,5.0;" x1="1179" x2="1179" y1="82.6094" y2="834.0156"/><line style="stroke:#181818;stroke-width:0.5;stroke-dasharray:5.0,5.0;" x1="1283" x2="1283" y1="82.6094" y2="834.0156"/><line style="stroke:#181818;stroke-width:0.5;stroke-dasharray:5.0,5.0;" x1="1396" x2="1396" y1="82.6094" y2="834.0156"/><line style="stroke:#181818;stroke-width:0.5;stroke-dasharray:5.0,5.0;" x1="1497" x2="1497" y1="82.6094" y2="834.0156"/><text fill="#000000" font-family="sans-serif" font-size="14" lengthAdjust="spacing" textLength="61" x="30" y="79.5332">Customer</text><ellipse cx="63.5" cy="13.5" fill="#E2E2F0" rx="8" ry="8" style="stroke:#181818;stroke-width:0.5;"/><path d="M63.5,21.5 L63.5,48.5 M50.5,29.5 L76.5,29.5 M63.5,48.5 L50.5,63.5 M63.5,48.5 L76.5,63.5 " fill="none" style="stroke:#181818;stroke-width:0.5;"/><text fill="#000000" font-family="sans-serif" font-size="14" lengthAdjust="spacing" textLength="61" x="30" y="847.5488">Customer</text><ellipse cx="63.5" cy="859.125" fill="#E2E2F0" rx="8" ry="8" style="stroke:#181818;stroke-width:0.5;"/><path d="M63.5,867.125 L63.5,894.125 M50.5,875.125 L76.5,875.125 M63.5,894.125 L50.5,909.125 M63.5,894.125 L76.5,909.125 " fill="none" style="stroke:#181818;stroke-width:0.5;"/><rect fill="#E2E2F0" height="31.6094" rx="2.5" ry="2.5" style="stroke:#181818;stroke-width:0.5;" width="78" x="274.5" y="50"/><text fill="#000000" font-family="sans-serif" font-size="14" lengthAdjust="spacing" textLength="64" x="281.5" y="71.5332">LoginView</text><rect fill="#E2E2F0" height="31.6094" rx="2.5" ry="2.5" style="stroke:#181818;stroke-width:0.5;" width="78" x="274.5" y="833.0156"/><text fill="#000000" font-family="sans-serif" font-size="14" lengthAdjust="spacing" textLength="64" x="281.5" y="854.5488">LoginView</text><rect fill="#E2E2F0" height="31.6094" rx="2.5" ry="2.5" style="stroke:#181818;stroke-width:0.5;" width="105" x="632" y="50"/><text fill="#000000" font-family="sans-serif" font-size="14" lengthAdjust="spacing" textLength="91" x="639" y="71.5332">AuthController</text><rect fill="#E2E2F0" height="31.6094" rx="2.5" ry="2.5" style="stroke:#181818;stroke-width:0.5;" width="105" x="632" y="833.0156"/><text fill="#000000" font-family="sans-serif" font-size="14" lengthAdjust="spacing" textLength="91" x="639" y="854.5488">AuthController</text><rect fill="#E2E2F0" height="31.6094" rx="2.5" ry="2.5" style="stroke:#181818;stroke-width:0.5;" width="173" x="947" y="50"/><text fill="#000000" font-family="sans-serif" font-size="14" lengthAdjust="spacing" textLength="159" x="954" y="71.5332">CustomerCustomersDAO</text><rect fill="#E2E2F0" height="31.6094" rx="2.5" ry="2.5" style="stroke:#181818;stroke-width:0.5;" width="173" x="947" y="833.0156"/><text fill="#000000" font-family="sans-serif" font-size="14" lengthAdjust="spacing" textLength="159" x="954" y="854.5488">CustomerCustomersDAO</text><rect fill="#E2E2F0" height="31.6094" rx="2.5" ry="2.5" style="stroke:#181818;stroke-width:0.5;" width="98" x="1130" y="50"/><text fill="#000000" font-family="sans-serif" font-size="14" lengthAdjust="spacing" textLength="84" x="1137" y="71.5332">EncyptHelper</text><rect fill="#E2E2F0" height="31.6094" rx="2.5" ry="2.5" style="stroke:#181818;stroke-width:0.5;" width="98" x="1130" y="833.0156"/><text fill="#000000" font-family="sans-serif" font-size="14" lengthAdjust="spacing" textLength="84" x="1137" y="854.5488">EncyptHelper</text><rect fill="#E2E2F0" height="31.6094" rx="2.5" ry="2.5" style="stroke:#181818;stroke-width:0.5;" width="91" x="1238" y="50"/><text fill="#000000" font-family="sans-serif" font-size="14" lengthAdjust="spacing" textLength="77" x="1245" y="71.5332">AutoMapper</text><rect fill="#E2E2F0" height="31.6094" rx="2.5" ry="2.5" style="stroke:#181818;stroke-width:0.5;" width="91" x="1238" y="833.0156"/><text fill="#000000" font-family="sans-serif" font-size="14" lengthAdjust="spacing" textLength="77" x="1245" y="854.5488">AutoMapper</text><rect fill="#E2E2F0" height="31.6094" rx="2.5" ry="2.5" style="stroke:#181818;stroke-width:0.5;" width="114" x="1339" y="50"/><text fill="#000000" font-family="sans-serif" font-size="14" lengthAdjust="spacing" textLength="100" x="1346" y="71.5332">JwtTokenHelper</text><rect fill="#E2E2F0" height="31.6094" rx="2.5" ry="2.5" style="stroke:#181818;stroke-width:0.5;" width="114" x="1339" y="833.0156"/><text fill="#000000" font-family="sans-serif" font-size="14" lengthAdjust="spacing" textLength="100" x="1346" y="854.5488">JwtTokenHelper</text><text fill="#000000" font-family="sans-serif" font-size="14" lengthAdjust="spacing" textLength="61" x="1464" y="79.5332">Database</text><path d="M1479.5,29 C1479.5,19 1497.5,19 1497.5,19 C1497.5,19 1515.5,19 1515.5,29 L1515.5,55 C1515.5,65 1497.5,65 1497.5,65 C1497.5,65 1479.5,65 1479.5,55 L1479.5,29 " fill="#E2E2F0" style="stroke:#181818;stroke-width:1.5;"/><path d="M1479.5,29 C1479.5,39 1497.5,39 1497.5,39 C1497.5,39 1515.5,39 1515.5,29 " fill="none" style="stroke:#181818;stroke-width:1.5;"/><text fill="#000000" font-family="sans-serif" font-size="14" lengthAdjust="spacing" textLength="61" x="1464" y="847.5488">Database</text><path d="M1479.5,860.625 C1479.5,850.625 1497.5,850.625 1497.5,850.625 C1497.5,850.625 1515.5,850.625 1515.5,860.625 L1515.5,886.625 C1515.5,896.625 1497.5,896.625 1497.5,896.625 C1497.5,896.625 1479.5,896.625 1479.5,886.625 L1479.5,860.625 " fill="#E2E2F0" style="stroke:#181818;stroke-width:1.5;"/><path d="M1479.5,860.625 C1479.5,870.625 1497.5,870.625 1497.5,870.625 C1497.5,870.625 1515.5,870.625 1515.5,860.625 " fill="none" style="stroke:#181818;stroke-width:1.5;"/><rect fill="#FFFFFF" height="668.7031" style="stroke:#181818;stroke-width:1.0;" width="10" x="308.5" y="140.3125"/><rect fill="#FFFFFF" height="98.0547" style="stroke:#181818;stroke-width:1.0;" width="10" x="313.5" y="178.6641"/><rect fill="#FFFFFF" height="501.9453" style="stroke:#181818;stroke-width:1.0;" width="10" x="679.5" y="276.7188"/><rect fill="#FFFFFF" height="137.2422" style="stroke:#181818;stroke-width:1.0;" width="10" x="684.5" y="436.4766"/><rect fill="#FFFFFF" height="91.0547" style="stroke:#181818;stroke-width:1.0;" width="10" x="1028.5" y="307.0703"/><rect fill="#FFFFFF" height="30.3516" style="stroke:#181818;stroke-width:1.0;" width="10" x="1278.5" y="573.7188"/><rect fill="#FFFFFF" height="30.3516" style="stroke:#181818;stroke-width:1.0;" width="10" x="1391" y="634.4219"/><rect fill="#FFFFFF" height="30.3516" style="stroke:#181818;stroke-width:1.0;" width="10" x="1492.5" y="337.4219"/><path d="M10,99.6094 L71,99.6094 L71,107.9609 L61,117.9609 L10,117.9609 L10,99.6094 " fill="#EEEEEE" style="stroke:#000000;stroke-width:1.5;"/><rect fill="none" height="717.4063" style="stroke:#000000;stroke-width:1.5;" width="1531" x="10" y="99.6094"/><text fill="#000000" font-family="sans-serif" font-size="13" font-weight="bold" lengthAdjust="spacing" textLength="16" x="25" y="114.1045">alt</text><text fill="#000000" font-family="sans-serif" font-size="11" font-weight="bold" lengthAdjust="spacing" textLength="23" x="86" y="113.0283">[try]</text><polygon fill="#181818" points="296.5,136.3125,306.5,140.3125,296.5,144.3125,300.5,140.3125" style="stroke:#181818;stroke-width:1.0;"/><line style="stroke:#181818;stroke-width:1.0;" x1="63.5" x2="302.5" y1="140.3125" y2="140.3125"/><text fill="#000000" font-family="sans-serif" font-size="13" lengthAdjust="spacing" textLength="144" x="70.5" y="135.4561">1. Enter login credentials</text><line style="stroke:#181818;stroke-width:1.0;" x1="318.5" x2="365.5" y1="165.6641" y2="165.6641"/><line style="stroke:#181818;stroke-width:1.0;" x1="365.5" x2="365.5" y1="165.6641" y2="178.6641"/><line style="stroke:#181818;stroke-width:1.0;" x1="324.5" x2="365.5" y1="178.6641" y2="178.6641"/><polygon fill="#181818" points="334.5,174.6641,324.5,178.6641,334.5,182.6641,330.5,178.6641" style="stroke:#181818;stroke-width:1.0;"/><text fill="#000000" font-family="sans-serif" font-size="13" lengthAdjust="spacing" textLength="160" x="330.5" y="160.8076">2. Check validate input data</text><path d="M20,198.6641 L85,198.6641 L85,207.0156 L75,217.0156 L20,217.0156 L20,198.6641 " fill="#EEEEEE" style="stroke:#000000;stroke-width:1.5;"/><rect fill="none" height="48.7031" style="stroke:#000000;stroke-width:1.5;" width="342.5" x="20" y="198.6641"/><text fill="#000000" font-family="sans-serif" font-size="13" font-weight="bold" lengthAdjust="spacing" textLength="20" x="35" y="213.1592">opt</text><text fill="#000000" font-family="sans-serif" font-size="11" font-weight="bold" lengthAdjust="spacing" textLength="109" x="100" y="212.083">[Validate input data]</text><polygon fill="#181818" points="74.5,235.3672,64.5,239.3672,74.5,243.3672,70.5,239.3672" style="stroke:#181818;stroke-width:1.0;"/><line style="stroke:#181818;stroke-width:1.0;stroke-dasharray:2.0,2.0;" x1="68.5" x2="312.5" y1="239.3672" y2="239.3672"/><text fill="#000000" font-family="sans-serif" font-size="13" lengthAdjust="spacing" textLength="134" x="80.5" y="234.5107">3. Show error message</text><polygon fill="#181818" points="667.5,272.7188,677.5,276.7188,667.5,280.7188,671.5,276.7188" style="stroke:#181818;stroke-width:1.0;"/><line style="stroke:#181818;stroke-width:1.0;" x1="318.5" x2="673.5" y1="276.7188" y2="276.7188"/><text fill="#000000" font-family="sans-serif" font-size="13" lengthAdjust="spacing" textLength="258" x="325.5" y="271.8623">4. POST /api/Auth/Login (LoginRequestDTO)</text><polygon fill="#181818" points="1016.5,303.0703,1026.5,307.0703,1016.5,311.0703,1020.5,307.0703" style="stroke:#181818;stroke-width:1.0;"/><line style="stroke:#181818;stroke-width:1.0;" x1="689.5" x2="1022.5" y1="307.0703" y2="307.0703"/><text fill="#000000" font-family="sans-serif" font-size="13" lengthAdjust="spacing" textLength="320" x="696.5" y="302.2139">5. findCustomerCustomerByEmail(LoginRequest.Email)</text><polygon fill="#181818" points="1480.5,333.4219,1490.5,337.4219,1480.5,341.4219,1484.5,337.4219" style="stroke:#181818;stroke-width:1.0;"/><line style="stroke:#181818;stroke-width:1.0;" x1="1038.5" x2="1486.5" y1="337.4219" y2="337.4219"/><text fill="#000000" font-family="sans-serif" font-size="13" lengthAdjust="spacing" textLength="435" x="1045.5" y="332.5654">6. context.Users.Where(u =&gt; u.Email == email &amp;&amp; ).FirstOrDefaultAsync();</text><polygon fill="#181818" points="1049.5,363.7734,1039.5,367.7734,1049.5,371.7734,1045.5,367.7734" style="stroke:#181818;stroke-width:1.0;"/><line style="stroke:#181818;stroke-width:1.0;stroke-dasharray:2.0,2.0;" x1="1043.5" x2="1496.5" y1="367.7734" y2="367.7734"/><text fill="#000000" font-family="sans-serif" font-size="13" lengthAdjust="spacing" textLength="147" x="1055.5" y="362.917">7. Customer data (or null)</text><polygon fill="#181818" points="700.5,394.125,690.5,398.125,700.5,402.125,696.5,398.125" style="stroke:#181818;stroke-width:1.0;"/><line style="stroke:#181818;stroke-width:1.0;stroke-dasharray:2.0,2.0;" x1="694.5" x2="1032.5" y1="398.125" y2="398.125"/><text fill="#000000" font-family="sans-serif" font-size="13" lengthAdjust="spacing" textLength="143" x="706.5" y="393.2686">8 Customer data (or null)</text><line style="stroke:#181818;stroke-width:1.0;" x1="689.5" x2="736.5" y1="423.4766" y2="423.4766"/><line style="stroke:#181818;stroke-width:1.0;" x1="736.5" x2="736.5" y1="423.4766" y2="436.4766"/><line style="stroke:#181818;stroke-width:1.0;" x1="695.5" x2="736.5" y1="436.4766" y2="436.4766"/><polygon fill="#181818" points="705.5,432.4766,695.5,436.4766,705.5,440.4766,701.5,436.4766" style="stroke:#181818;stroke-width:1.0;"/><text fill="#000000" font-family="sans-serif" font-size="13" lengthAdjust="spacing" textLength="141" x="701.5" y="418.6201">9. Check Customer data</text><path d="M20,456.4766 L81,456.4766 L81,464.8281 L71,474.8281 L20,474.8281 L20,456.4766 " fill="#EEEEEE" style="stroke:#000000;stroke-width:1.5;"/><rect fill="none" height="277" style="stroke:#000000;stroke-width:1.5;" width="1443" x="20" y="456.4766"/><text fill="#000000" font-family="sans-serif" font-size="13" font-weight="bold" lengthAdjust="spacing" textLength="16" x="35" y="470.9717">alt</text><text fill="#000000" font-family="sans-serif" font-size="11" font-weight="bold" lengthAdjust="spacing" textLength="72" x="96" y="469.8955">[Login failed]</text><polygon fill="#181818" points="329.5,493.1797,319.5,497.1797,329.5,501.1797,325.5,497.1797" style="stroke:#181818;stroke-width:1.0;"/><line style="stroke:#181818;stroke-width:1.0;stroke-dasharray:2.0,2.0;" x1="323.5" x2="683.5" y1="497.1797" y2="497.1797"/><text fill="#000000" font-family="sans-serif" font-size="13" lengthAdjust="spacing" textLength="337" x="335.5" y="492.3232">10. 404 Not Found (Email not found or Incorrect password)</text><polygon fill="#181818" points="74.5,523.5313,64.5,527.5313,74.5,531.5313,70.5,527.5313" style="stroke:#181818;stroke-width:1.0;"/><line style="stroke:#181818;stroke-width:1.0;" x1="68.5" x2="307.5" y1="527.5313" y2="527.5313"/><text fill="#000000" font-family="sans-serif" font-size="13" lengthAdjust="spacing" textLength="141" x="80.5" y="522.6748">11. Show error message</text><line style="stroke:#000000;stroke-width:1.0;stroke-dasharray:2.0,2.0;" x1="20" x2="1463" y1="536.5313" y2="536.5313"/><text fill="#000000" font-family="sans-serif" font-size="11" font-weight="bold" lengthAdjust="spacing" textLength="103" x="25" y="547.9502">[Login successful]</text><polygon fill="#181818" points="1266.5,569.7188,1276.5,573.7188,1266.5,577.7188,1270.5,573.7188" style="stroke:#181818;stroke-width:1.0;"/><line style="stroke:#181818;stroke-width:1.0;" x1="689.5" x2="1272.5" y1="573.7188" y2="573.7188"/><text fill="#000000" font-family="sans-serif" font-size="13" lengthAdjust="spacing" textLength="348" x="696.5" y="568.8623">12. Map CustomerCustomerDAO to CustomerCustomerDTO</text><polygon fill="#181818" points="700.5,600.0703,690.5,604.0703,700.5,608.0703,696.5,604.0703" style="stroke:#181818;stroke-width:1.0;"/><line style="stroke:#181818;stroke-width:1.0;stroke-dasharray:2.0,2.0;" x1="694.5" x2="1282.5" y1="604.0703" y2="604.0703"/><text fill="#000000" font-family="sans-serif" font-size="13" lengthAdjust="spacing" textLength="160" x="706.5" y="599.2139">13. CustomerCustomerDTO</text><polygon fill="#181818" points="1379,630.4219,1389,634.4219,1379,638.4219,1383,634.4219" style="stroke:#181818;stroke-width:1.0;"/><line style="stroke:#181818;stroke-width:1.0;" x1="689.5" x2="1385" y1="634.4219" y2="634.4219"/><text fill="#000000" font-family="sans-serif" font-size="13" lengthAdjust="spacing" textLength="275" x="696.5" y="629.5654">14. GenerateJwtToken(CustomerCustomerDTO)</text><polygon fill="#181818" points="700.5,660.7734,690.5,664.7734,700.5,668.7734,696.5,664.7734" style="stroke:#181818;stroke-width:1.0;"/><line style="stroke:#181818;stroke-width:1.0;stroke-dasharray:2.0,2.0;" x1="694.5" x2="1395" y1="664.7734" y2="664.7734"/><text fill="#000000" font-family="sans-serif" font-size="13" lengthAdjust="spacing" textLength="54" x="706.5" y="659.917">15. token</text><polygon fill="#181818" points="329.5,691.125,319.5,695.125,329.5,699.125,325.5,695.125" style="stroke:#181818;stroke-width:1.0;"/><line style="stroke:#181818;stroke-width:1.0;" x1="323.5" x2="678.5" y1="695.125" y2="695.125"/><text fill="#000000" font-family="sans-serif" font-size="13" lengthAdjust="spacing" textLength="225" x="335.5" y="690.2686">16. 200 OK (Login successfully, token)</text><polygon fill="#181818" points="74.5,721.4766,64.5,725.4766,74.5,729.4766,70.5,725.4766" style="stroke:#181818;stroke-width:1.0;"/><line style="stroke:#181818;stroke-width:1.0;" x1="68.5" x2="307.5" y1="725.4766" y2="725.4766"/><text fill="#000000" font-family="sans-serif" font-size="13" lengthAdjust="spacing" textLength="221" x="80.5" y="720.6201">17. Redirect to dashboard/ home page</text><line style="stroke:#000000;stroke-width:1.0;stroke-dasharray:2.0,2.0;" x1="10" x2="1541" y1="741.4766" y2="741.4766"/><text fill="#000000" font-family="sans-serif" font-size="11" font-weight="bold" lengthAdjust="spacing" textLength="95" x="15" y="752.8955">[Catch Exception]</text><polygon fill="#181818" points="329.5,774.6641,319.5,778.6641,329.5,782.6641,325.5,778.6641" style="stroke:#181818;stroke-width:1.0;"/><line style="stroke:#181818;stroke-width:1.0;stroke-dasharray:2.0,2.0;" x1="323.5" x2="683.5" y1="778.6641" y2="778.6641"/><text fill="#000000" font-family="sans-serif" font-size="13" lengthAdjust="spacing" textLength="161" x="335.5" y="773.8076">18. 500 Internal Server Error</text><polygon fill="#181818" points="74.5,805.0156,64.5,809.0156,74.5,813.0156,70.5,809.0156" style="stroke:#181818;stroke-width:1.0;"/><line style="stroke:#181818;stroke-width:1.0;stroke-dasharray:2.0,2.0;" x1="68.5" x2="312.5" y1="809.0156" y2="809.0156"/><text fill="#000000" font-family="sans-serif" font-size="13" lengthAdjust="spacing" textLength="141" x="80.5" y="804.1592">19. Show error message</text><!--SRC=[ZLNRSXen37tVhz1J1cPQ0xcq2Pra9WNI9htGIMZwx7X5rXF7tjfU27zVxSB2hcCwuGKZoTAHpv7WmXiBey9vyumsoRdrKiYSQm_VpQFKznANBUjbuREHqTuQfO8BTPRwsuqlfws0YHQht7z5bGStAQdvmVFGVBFqC_E4UdCZvPu_S8SmtXoIX2iFtgwIkYIylzZX7iA0KKrFPbNQG5XCKNl9bKkuy7B1FJRQJBR78CqXWr66uWaMNCcql2HrNdWe0SKIcTp3VIGKwDEeGKLgt4CuOd2NcIMWjKJ8Cph77p51dGQmsky_X6C6lwPtC-ZnNFPAPwyAXqxrTOj_2tH-F9jsanGZKBUcWDVsJsX0RR8xX1C6SwdJqFbvDNdcKhL0iChKtPMCwYM9MSlwDUb3-C1043HyyUotem3s9qEBdGBEBw1OLu7pSy3gS700NNObhVDJEyOvBvI_T2ijEjrFEoHRGTM75ZdjZZ-ohQDY5Jh4bowKQhtmDcEydGYHfsz96t-orsI5oSzg1RTgx6M_cgkrZkRqY9XMqWtB1BFMPt3SFuQVniELANGAdJKLcWppoa0TNMjXh4NX8UVEBOrDk-5ODATYC8YEHOBARLGChX22pFD2HK5UD9OBvQDHflEhTon9yUQrUJQjaZOO25wgz3PzzHhRGDdyZ18-E69lB5WdtTDWUqrIOje9Nr2ZfUkrhnEfr6sZ3xPjwMkRubtG1l1bJ8WxIBS7UrD0DDU7_JvClssMLuDQjNgthl9_jT1itc8gAtqHdIbtsOFXDkr1HX4akKexj5Ch_Oou5nbCNWJcNXgzH-DDXASCJWZXTVcVehc2ExGBYfgKudo3KFRj_i5PLEL1mjtIBZlu1m00]--></g></svg>