<?xml version="1.0" encoding="us-ascii" standalone="no"?><svg contentStyleType="text/css" height="966px" preserveAspectRatio="none" style="width:1354px;height:966px;background:#FFFFFF;" version="1.1" viewBox="0 0 1354 966" width="1354px" xmlns="http://www.w3.org/2000/svg" xmlns:xlink="http://www.w3.org/1999/xlink" zoomAndPan="magnify"><defs/><g><rect fill="#FFFFFF" height="744.5938" style="stroke:#181818;stroke-width:1.0;" width="10" x="263.5" y="114.9609"/><rect fill="#FFFFFF" height="683.8906" style="stroke:#181818;stroke-width:1.0;" width="10" x="587.5" y="145.3125"/><rect fill="#FFFFFF" height="30.3516" style="stroke:#181818;stroke-width:1.0;" width="10" x="804.5" y="677.9609"/><rect fill="#FFFFFF" height="162.5938" style="stroke:#181818;stroke-width:1.0;" width="10" x="917" y="201.0156"/><rect fill="#FFFFFF" height="151.7578" style="stroke:#181818;stroke-width:1.0;" width="10" x="1021" y="393.9609"/><rect fill="#FFFFFF" height="91.0547" style="stroke:#181818;stroke-width:1.0;" width="10" x="1155" y="424.3125"/><rect fill="#FFFFFF" height="30.3516" style="stroke:#181818;stroke-width:1.0;" width="10" x="1289" y="454.6641"/><rect fill="none" height="707.2422" style="stroke:#000000;stroke-width:1.5;" width="1337.5" x="10" y="160.3125"/><rect fill="none" height="568" style="stroke:#000000;stroke-width:1.5;" width="1317.5" x="20" y="216.0156"/><rect fill="none" height="216.2969" style="stroke:#000000;stroke-width:1.5;" width="835" x="30" y="560.7188"/><line style="stroke:#181818;stroke-width:0.5;stroke-dasharray:5.0,5.0;" x1="57" x2="57" y1="82.6094" y2="884.5547"/><line style="stroke:#181818;stroke-width:0.5;stroke-dasharray:5.0,5.0;" x1="268" x2="268" y1="82.6094" y2="884.5547"/><line style="stroke:#181818;stroke-width:0.5;stroke-dasharray:5.0,5.0;" x1="592" x2="592" y1="82.6094" y2="884.5547"/><line style="stroke:#181818;stroke-width:0.5;stroke-dasharray:5.0,5.0;" x1="809" x2="809" y1="82.6094" y2="884.5547"/><line style="stroke:#181818;stroke-width:0.5;stroke-dasharray:5.0,5.0;" x1="922" x2="922" y1="82.6094" y2="884.5547"/><line style="stroke:#181818;stroke-width:0.5;stroke-dasharray:5.0,5.0;" x1="1026" x2="1026" y1="82.6094" y2="884.5547"/><line style="stroke:#181818;stroke-width:0.5;stroke-dasharray:5.0,5.0;" x1="1159.5" x2="1159.5" y1="82.6094" y2="884.5547"/><line style="stroke:#181818;stroke-width:0.5;stroke-dasharray:5.0,5.0;" x1="1293.5" x2="1293.5" y1="82.6094" y2="884.5547"/><text fill="#000000" font-family="sans-serif" font-size="14" lengthAdjust="spacing" textLength="29" x="40" y="79.5332">User</text><ellipse cx="57.5" cy="13.5" fill="#E2E2F0" rx="8" ry="8" style="stroke:#181818;stroke-width:0.5;"/><path d="M57.5,21.5 L57.5,48.5 M44.5,29.5 L70.5,29.5 M57.5,48.5 L44.5,63.5 M57.5,48.5 L70.5,63.5 " fill="none" style="stroke:#181818;stroke-width:0.5;"/><text fill="#000000" font-family="sans-serif" font-size="14" lengthAdjust="spacing" textLength="29" x="40" y="898.0879">User</text><ellipse cx="57.5" cy="909.6641" fill="#E2E2F0" rx="8" ry="8" style="stroke:#181818;stroke-width:0.5;"/><path d="M57.5,917.6641 L57.5,944.6641 M44.5,925.6641 L70.5,925.6641 M57.5,944.6641 L44.5,959.6641 M57.5,944.6641 L70.5,959.6641 " fill="none" style="stroke:#181818;stroke-width:0.5;"/><rect fill="#E2E2F0" height="31.6094" rx="2.5" ry="2.5" style="stroke:#181818;stroke-width:0.5;" width="117" x="210" y="50"/><text fill="#000000" font-family="sans-serif" font-size="14" lengthAdjust="spacing" textLength="103" x="217" y="71.5332">ManageCarView</text><rect fill="#E2E2F0" height="31.6094" rx="2.5" ry="2.5" style="stroke:#181818;stroke-width:0.5;" width="117" x="210" y="883.5547"/><text fill="#000000" font-family="sans-serif" font-size="14" lengthAdjust="spacing" textLength="103" x="217" y="905.0879">ManageCarView</text><rect fill="#E2E2F0" height="31.6094" rx="2.5" ry="2.5" style="stroke:#181818;stroke-width:0.5;" width="145" x="520" y="50"/><text fill="#000000" font-family="sans-serif" font-size="14" lengthAdjust="spacing" textLength="131" x="527" y="71.5332">AdminCarsController</text><rect fill="#E2E2F0" height="31.6094" rx="2.5" ry="2.5" style="stroke:#181818;stroke-width:0.5;" width="145" x="520" y="883.5547"/><text fill="#000000" font-family="sans-serif" font-size="14" lengthAdjust="spacing" textLength="131" x="527" y="905.0879">AdminCarsController</text><rect fill="#E2E2F0" height="31.6094" rx="2.5" ry="2.5" style="stroke:#181818;stroke-width:0.5;" width="91" x="764" y="50"/><text fill="#000000" font-family="sans-serif" font-size="14" lengthAdjust="spacing" textLength="77" x="771" y="71.5332">AutoMapper</text><rect fill="#E2E2F0" height="31.6094" rx="2.5" ry="2.5" style="stroke:#181818;stroke-width:0.5;" width="91" x="764" y="883.5547"/><text fill="#000000" font-family="sans-serif" font-size="14" lengthAdjust="spacing" textLength="77" x="771" y="905.0879">AutoMapper</text><rect fill="#E2E2F0" height="31.6094" rx="2.5" ry="2.5" style="stroke:#181818;stroke-width:0.5;" width="114" x="865" y="50"/><text fill="#000000" font-family="sans-serif" font-size="14" lengthAdjust="spacing" textLength="100" x="872" y="71.5332">JwtTokenHelper</text><rect fill="#E2E2F0" height="31.6094" rx="2.5" ry="2.5" style="stroke:#181818;stroke-width:0.5;" width="114" x="865" y="883.5547"/><text fill="#000000" font-family="sans-serif" font-size="14" lengthAdjust="spacing" textLength="100" x="872" y="905.0879">JwtTokenHelper</text><rect fill="#E2E2F0" height="31.6094" rx="2.5" ry="2.5" style="stroke:#181818;stroke-width:0.5;" width="74" x="989" y="50"/><text fill="#000000" font-family="sans-serif" font-size="14" lengthAdjust="spacing" textLength="60" x="996" y="71.5332">CarsDAO</text><rect fill="#E2E2F0" height="31.6094" rx="2.5" ry="2.5" style="stroke:#181818;stroke-width:0.5;" width="74" x="989" y="883.5547"/><text fill="#000000" font-family="sans-serif" font-size="14" lengthAdjust="spacing" textLength="60" x="996" y="905.0879">CarsDAO</text><rect fill="#E2E2F0" height="31.6094" rx="2.5" ry="2.5" style="stroke:#181818;stroke-width:0.5;" width="105" x="1107.5" y="50"/><text fill="#000000" font-family="sans-serif" font-size="14" lengthAdjust="spacing" textLength="91" x="1114.5" y="71.5332">VinfastContext</text><rect fill="#E2E2F0" height="31.6094" rx="2.5" ry="2.5" style="stroke:#181818;stroke-width:0.5;" width="105" x="1107.5" y="883.5547"/><text fill="#000000" font-family="sans-serif" font-size="14" lengthAdjust="spacing" textLength="91" x="1114.5" y="905.0879">VinfastContext</text><text fill="#000000" font-family="sans-serif" font-size="14" lengthAdjust="spacing" textLength="61" x="1260.5" y="79.5332">Database</text><path d="M1276,29 C1276,19 1294,19 1294,19 C1294,19 1312,19 1312,29 L1312,55 C1312,65 1294,65 1294,65 C1294,65 1276,65 1276,55 L1276,29 " fill="#E2E2F0" style="stroke:#181818;stroke-width:1.5;"/><path d="M1276,29 C1276,39 1294,39 1294,39 C1294,39 1312,39 1312,29 " fill="none" style="stroke:#181818;stroke-width:1.5;"/><text fill="#000000" font-family="sans-serif" font-size="14" lengthAdjust="spacing" textLength="61" x="1260.5" y="898.0879">Database</text><path d="M1276,911.1641 C1276,901.1641 1294,901.1641 1294,901.1641 C1294,901.1641 1312,901.1641 1312,911.1641 L1312,937.1641 C1312,947.1641 1294,947.1641 1294,947.1641 C1294,947.1641 1276,947.1641 1276,937.1641 L1276,911.1641 " fill="#E2E2F0" style="stroke:#181818;stroke-width:1.5;"/><path d="M1276,911.1641 C1276,921.1641 1294,921.1641 1294,921.1641 C1294,921.1641 1312,921.1641 1312,911.1641 " fill="none" style="stroke:#181818;stroke-width:1.5;"/><rect fill="#FFFFFF" height="744.5938" style="stroke:#181818;stroke-width:1.0;" width="10" x="263.5" y="114.9609"/><rect fill="#FFFFFF" height="683.8906" style="stroke:#181818;stroke-width:1.0;" width="10" x="587.5" y="145.3125"/><rect fill="#FFFFFF" height="30.3516" style="stroke:#181818;stroke-width:1.0;" width="10" x="804.5" y="677.9609"/><rect fill="#FFFFFF" height="162.5938" style="stroke:#181818;stroke-width:1.0;" width="10" x="917" y="201.0156"/><rect fill="#FFFFFF" height="151.7578" style="stroke:#181818;stroke-width:1.0;" width="10" x="1021" y="393.9609"/><rect fill="#FFFFFF" height="91.0547" style="stroke:#181818;stroke-width:1.0;" width="10" x="1155" y="424.3125"/><rect fill="#FFFFFF" height="30.3516" style="stroke:#181818;stroke-width:1.0;" width="10" x="1289" y="454.6641"/><polygon fill="#181818" points="251.5,110.9609,261.5,114.9609,251.5,118.9609,255.5,114.9609" style="stroke:#181818;stroke-width:1.0;"/><line style="stroke:#181818;stroke-width:1.0;" x1="57.5" x2="257.5" y1="114.9609" y2="114.9609"/><text fill="#000000" font-family="sans-serif" font-size="13" lengthAdjust="spacing" textLength="187" x="64.5" y="110.1045">Access admin manage car page</text><polygon fill="#181818" points="575.5,141.3125,585.5,145.3125,575.5,149.3125,579.5,145.3125" style="stroke:#181818;stroke-width:1.0;"/><line style="stroke:#181818;stroke-width:1.0;" x1="273.5" x2="581.5" y1="145.3125" y2="145.3125"/><text fill="#000000" font-family="sans-serif" font-size="13" lengthAdjust="spacing" textLength="125" x="280.5" y="140.4561">Call "/api/AdminCars"</text><path d="M10,160.3125 L71,160.3125 L71,168.6641 L61,178.6641 L10,178.6641 L10,160.3125 " fill="#EEEEEE" style="stroke:#000000;stroke-width:1.5;"/><rect fill="none" height="707.2422" style="stroke:#000000;stroke-width:1.5;" width="1337.5" x="10" y="160.3125"/><text fill="#000000" font-family="sans-serif" font-size="13" font-weight="bold" lengthAdjust="spacing" textLength="16" x="25" y="174.8076">alt</text><text fill="#000000" font-family="sans-serif" font-size="11" font-weight="bold" lengthAdjust="spacing" textLength="23" x="86" y="173.7314">[try]</text><polygon fill="#181818" points="905,197.0156,915,201.0156,905,205.0156,909,201.0156" style="stroke:#181818;stroke-width:1.0;"/><line style="stroke:#181818;stroke-width:1.0;" x1="597.5" x2="911" y1="201.0156" y2="201.0156"/><text fill="#000000" font-family="sans-serif" font-size="13" lengthAdjust="spacing" textLength="243" x="604.5" y="196.1592">AuthenticateAndAuthorize(HttpContext, 1)</text><path d="M20,216.0156 L81,216.0156 L81,224.3672 L71,234.3672 L20,234.3672 L20,216.0156 " fill="#EEEEEE" style="stroke:#000000;stroke-width:1.5;"/><rect fill="none" height="568" style="stroke:#000000;stroke-width:1.5;" width="1317.5" x="20" y="216.0156"/><text fill="#000000" font-family="sans-serif" font-size="13" font-weight="bold" lengthAdjust="spacing" textLength="16" x="35" y="230.5107">alt</text><text fill="#000000" font-family="sans-serif" font-size="11" font-weight="bold" lengthAdjust="spacing" textLength="128" x="96" y="229.4346">[Authentication Failure]</text><polygon fill="#181818" points="608.5,252.7188,598.5,256.7188,608.5,260.7188,604.5,256.7188" style="stroke:#181818;stroke-width:1.0;"/><line style="stroke:#181818;stroke-width:1.0;stroke-dasharray:2.0,2.0;" x1="602.5" x2="916" y1="256.7188" y2="256.7188"/><text fill="#000000" font-family="sans-serif" font-size="13" lengthAdjust="spacing" textLength="199" x="614.5" y="251.8623">(isSuccess = false, errorMessage)</text><polygon fill="#181818" points="284.5,283.0703,274.5,287.0703,284.5,291.0703,280.5,287.0703" style="stroke:#181818;stroke-width:1.0;"/><line style="stroke:#181818;stroke-width:1.0;stroke-dasharray:2.0,2.0;" x1="278.5" x2="586.5" y1="287.0703" y2="287.0703"/><text fill="#000000" font-family="sans-serif" font-size="13" lengthAdjust="spacing" textLength="234" x="290.5" y="282.2139">Return Unauthorized(401, errorMessage)</text><polygon fill="#181818" points="68.5,313.4219,58.5,317.4219,68.5,321.4219,64.5,317.4219" style="stroke:#181818;stroke-width:1.0;"/><line style="stroke:#181818;stroke-width:1.0;" x1="62.5" x2="262.5" y1="317.4219" y2="317.4219"/><text fill="#000000" font-family="sans-serif" font-size="13" lengthAdjust="spacing" textLength="130" x="74.5" y="312.5654">Display error message</text><line style="stroke:#000000;stroke-width:1.0;stroke-dasharray:2.0,2.0;" x1="20" x2="1337.5" y1="326.4219" y2="326.4219"/><text fill="#000000" font-family="sans-serif" font-size="11" font-weight="bold" lengthAdjust="spacing" textLength="161" x="25" y="337.8408">[Authentication successfully]</text><polygon fill="#181818" points="608.5,359.6094,598.5,363.6094,608.5,367.6094,604.5,363.6094" style="stroke:#181818;stroke-width:1.0;"/><line style="stroke:#181818;stroke-width:1.0;stroke-dasharray:2.0,2.0;" x1="602.5" x2="921" y1="363.6094" y2="363.6094"/><text fill="#000000" font-family="sans-serif" font-size="13" lengthAdjust="spacing" textLength="153" x="614.5" y="358.7529">(isSuccess = true, claims)</text><polygon fill="#181818" points="1009,389.9609,1019,393.9609,1009,397.9609,1013,393.9609" style="stroke:#181818;stroke-width:1.0;"/><line style="stroke:#181818;stroke-width:1.0;" x1="597.5" x2="1015" y1="393.9609" y2="393.9609"/><text fill="#000000" font-family="sans-serif" font-size="13" lengthAdjust="spacing" textLength="71" x="604.5" y="389.1045">GetAllCars()</text><polygon fill="#181818" points="1143,420.3125,1153,424.3125,1143,428.3125,1147,424.3125" style="stroke:#181818;stroke-width:1.0;"/><line style="stroke:#181818;stroke-width:1.0;" x1="1031" x2="1149" y1="424.3125" y2="424.3125"/><text fill="#000000" font-family="sans-serif" font-size="13" lengthAdjust="spacing" textLength="71" x="1038" y="419.4561">GetAllCars()</text><polygon fill="#181818" points="1277,450.6641,1287,454.6641,1277,458.6641,1281,454.6641" style="stroke:#181818;stroke-width:1.0;"/><line style="stroke:#181818;stroke-width:1.0;" x1="1165" x2="1283" y1="454.6641" y2="454.6641"/><text fill="#000000" font-family="sans-serif" font-size="13" lengthAdjust="spacing" textLength="87" x="1172" y="449.8076">Execute Query</text><polygon fill="#181818" points="1176,481.0156,1166,485.0156,1176,489.0156,1172,485.0156" style="stroke:#181818;stroke-width:1.0;"/><line style="stroke:#181818;stroke-width:1.0;stroke-dasharray:2.0,2.0;" x1="1170" x2="1293" y1="485.0156" y2="485.0156"/><text fill="#000000" font-family="sans-serif" font-size="13" lengthAdjust="spacing" textLength="100" x="1182" y="480.1592">Return Cars Data</text><polygon fill="#181818" points="1042,511.3672,1032,515.3672,1042,519.3672,1038,515.3672" style="stroke:#181818;stroke-width:1.0;"/><line style="stroke:#181818;stroke-width:1.0;stroke-dasharray:2.0,2.0;" x1="1036" x2="1159" y1="515.3672" y2="515.3672"/><text fill="#000000" font-family="sans-serif" font-size="13" lengthAdjust="spacing" textLength="100" x="1048" y="510.5107">Return Cars Data</text><polygon fill="#181818" points="608.5,541.7188,598.5,545.7188,608.5,549.7188,604.5,545.7188" style="stroke:#181818;stroke-width:1.0;"/><line style="stroke:#181818;stroke-width:1.0;stroke-dasharray:2.0,2.0;" x1="602.5" x2="1025" y1="545.7188" y2="545.7188"/><text fill="#000000" font-family="sans-serif" font-size="13" lengthAdjust="spacing" textLength="94" x="614.5" y="540.8623">Return Cars List</text><path d="M30,560.7188 L91,560.7188 L91,569.0703 L81,579.0703 L30,579.0703 L30,560.7188 " fill="#EEEEEE" style="stroke:#000000;stroke-width:1.5;"/><rect fill="none" height="216.2969" style="stroke:#000000;stroke-width:1.5;" width="835" x="30" y="560.7188"/><text fill="#000000" font-family="sans-serif" font-size="13" font-weight="bold" lengthAdjust="spacing" textLength="16" x="45" y="575.2139">alt</text><text fill="#000000" font-family="sans-serif" font-size="11" font-weight="bold" lengthAdjust="spacing" textLength="88" x="106" y="574.1377">[No Cars Found]</text><polygon fill="#181818" points="284.5,597.4219,274.5,601.4219,284.5,605.4219,280.5,601.4219" style="stroke:#181818;stroke-width:1.0;"/><line style="stroke:#181818;stroke-width:1.0;stroke-dasharray:2.0,2.0;" x1="278.5" x2="586.5" y1="601.4219" y2="601.4219"/><text fill="#000000" font-family="sans-serif" font-size="13" lengthAdjust="spacing" textLength="218" x="290.5" y="596.5654">Return NotFound(404, "No car found")</text><polygon fill="#181818" points="68.5,627.7734,58.5,631.7734,68.5,635.7734,64.5,631.7734" style="stroke:#181818;stroke-width:1.0;"/><line style="stroke:#181818;stroke-width:1.0;" x1="62.5" x2="262.5" y1="631.7734" y2="631.7734"/><text fill="#000000" font-family="sans-serif" font-size="13" lengthAdjust="spacing" textLength="130" x="74.5" y="626.917">Display error message</text><line style="stroke:#000000;stroke-width:1.0;stroke-dasharray:2.0,2.0;" x1="30" x2="865" y1="640.7734" y2="640.7734"/><text fill="#000000" font-family="sans-serif" font-size="11" font-weight="bold" lengthAdjust="spacing" textLength="71" x="35" y="652.1924">[Cars Found]</text><polygon fill="#181818" points="792.5,673.9609,802.5,677.9609,792.5,681.9609,796.5,677.9609" style="stroke:#181818;stroke-width:1.0;"/><line style="stroke:#181818;stroke-width:1.0;" x1="597.5" x2="798.5" y1="677.9609" y2="677.9609"/><text fill="#000000" font-family="sans-serif" font-size="13" lengthAdjust="spacing" textLength="188" x="604.5" y="673.1045">ToAdminCarDTOList(adminCars)</text><polygon fill="#181818" points="608.5,704.3125,598.5,708.3125,608.5,712.3125,604.5,708.3125" style="stroke:#181818;stroke-width:1.0;"/><line style="stroke:#181818;stroke-width:1.0;stroke-dasharray:2.0,2.0;" x1="602.5" x2="808.5" y1="708.3125" y2="708.3125"/><text fill="#000000" font-family="sans-serif" font-size="13" lengthAdjust="spacing" textLength="93" x="614.5" y="703.4561">Return DTO List</text><polygon fill="#181818" points="284.5,734.6641,274.5,738.6641,284.5,742.6641,280.5,738.6641" style="stroke:#181818;stroke-width:1.0;"/><line style="stroke:#181818;stroke-width:1.0;stroke-dasharray:2.0,2.0;" x1="278.5" x2="586.5" y1="738.6641" y2="738.6641"/><text fill="#000000" font-family="sans-serif" font-size="13" lengthAdjust="spacing" textLength="290" x="290.5" y="733.8076">Return Ok(200, "Get all cars successfully", DTOs)</text><polygon fill="#181818" points="68.5,765.0156,58.5,769.0156,68.5,773.0156,64.5,769.0156" style="stroke:#181818;stroke-width:1.0;"/><line style="stroke:#181818;stroke-width:1.0;" x1="62.5" x2="262.5" y1="769.0156" y2="769.0156"/><text fill="#000000" font-family="sans-serif" font-size="13" lengthAdjust="spacing" textLength="177" x="74.5" y="764.1592">Display Display error message</text><line style="stroke:#000000;stroke-width:1.0;stroke-dasharray:2.0,2.0;" x1="10" x2="1347.5" y1="792.0156" y2="792.0156"/><text fill="#000000" font-family="sans-serif" font-size="11" font-weight="bold" lengthAdjust="spacing" textLength="95" x="15" y="803.4346">[Catch Exception]</text><polygon fill="#181818" points="284.5,825.2031,274.5,829.2031,284.5,833.2031,280.5,829.2031" style="stroke:#181818;stroke-width:1.0;"/><line style="stroke:#181818;stroke-width:1.0;stroke-dasharray:2.0,2.0;" x1="278.5" x2="591.5" y1="829.2031" y2="829.2031"/><text fill="#000000" font-family="sans-serif" font-size="13" lengthAdjust="spacing" textLength="263" x="290.5" y="824.3467">Return BadRequest(400, exception.Message)</text><polygon fill="#181818" points="68.5,855.5547,58.5,859.5547,68.5,863.5547,64.5,859.5547" style="stroke:#181818;stroke-width:1.0;"/><line style="stroke:#181818;stroke-width:1.0;" x1="62.5" x2="267.5" y1="859.5547" y2="859.5547"/><text fill="#000000" font-family="sans-serif" font-size="13" lengthAdjust="spacing" textLength="177" x="74.5" y="854.6982">Display Display error message</text><!--SRC=[fLRVRzem47xtNt7YAKXqfHDFaOQKbNNLD8hMqhxVacErQkpCTjQoltvs86cS10eTJydz-Exk-t8sc5gbuTwGPZbgorEUexGmHuc_w1Br0wVdm9DaQowTmrmgQRKIefMP55RDCSzRvc_FTgcUI5wJQBiys2nP1BO7BbTehAz1BvPbQF4d6eBPxe4nvdk6isdOQWn9cf8nWBvDM9S-I553xXuOffR_GKkj-HYuNs3om3sJngvP8M1mZZa_h_q3XiA2rPiIfwxHnrGPqUFmzKAAOi_a8qb7YGDBPEPVbUP_ARgsDjynCuABOObPLXQscSILX2laej1KXmGDjZHfneGkEDj7HyJDNR5b_1EiK1WQ0McjzDoP79t30BLtyAw4jsGBBU5UOZLo5at65uUGE-BvhoE66JUvmCqs4TRRp22nVY7NUvizinrjLGYn-Nzwh2uSEwb0lZPXznaTeydRL4whNOhXAzb42FyQ3VlLhzPkRubTW8SDr_4OzDO2xoqInlbQrOh7yEM5qi9X_IX8R_hBrET1qriPIrtQhUy-Bjzx6RXFY5xaWwqtwJ-soW6QQlhtVLpD6j-viVjgL4A73BgpuaPjawzK8RF0U_gotYXRmhX5dOnWuA3zeRlofi6mW_tkTIstzDIcfurBAOQbge9couNdBS8ggTlews7-UgrrQjQkDxLo5RjIjUGwLEaaIHPFqSVns8dXjXNyjPLwtffdsc3aEp8dwtE4JWrjM6LWE_Li-kXsEwNS7xBizC4-OtPBlmjoqatyW5HXVGZkXYQdFLVnk-Tiu8P_8yeP6Vi7]--></g></svg>